<svg width="22" height="18" viewBox="0 0 22 18" fill="none" xmlns="http://www.w3.org/2000/svg">
<g clip-path="url(#clip0_412_61684)">
<mask id="mask0_412_61684" style="mask-type:luminance" maskUnits="userSpaceOnUse" x="0" y="0" width="22" height="18">
<path d="M19.3994 18H2.58892C1.90122 17.9969 1.24275 17.7197 0.757563 17.2289C0.272379 16.7382 -6.97659e-06 16.0739 4.2536e-10 15.3814L4.2536e-10 1.78117C-5.1153e-06 1.54627 0.0461342 1.31369 0.135762 1.09682C0.225389 0.879954 0.356734 0.683078 0.522235 0.51753C0.687735 0.351982 0.884122 0.221032 1.10009 0.132219C1.31606 0.0434054 1.54734 -0.00151655 1.78062 3.90618e-05H18.263C18.7353 3.90618e-05 19.1882 0.188936 19.5221 0.525174C19.8561 0.861412 20.0437 1.31745 20.0437 1.79296V3.24381C20.3016 3.24381 20.5569 3.29515 20.795 3.39488C21.0332 3.49461 21.2493 3.64077 21.4312 3.82493C21.613 4.0091 21.7568 4.22765 21.8545 4.46801C21.9521 4.70837 22.0015 4.96579 22 5.22546V7.43123V15.3814C21.9969 16.075 21.7219 16.7392 21.2349 17.2296C20.7478 17.7201 20.0881 17.9969 19.3994 18ZM0.339723 2.84276V15.3814C0.339715 15.9832 0.576309 16.5604 0.997783 16.987C1.41926 17.4136 1.99132 17.6548 2.58892 17.658H19.3994C19.999 17.658 20.5741 17.4181 20.9981 16.9912C21.4221 16.5643 21.6603 15.9852 21.6603 15.3814V12.4325H16.8339C16.1721 12.4325 15.5374 12.1678 15.0695 11.6967C14.6015 11.2255 14.3387 10.5864 14.3387 9.92009V9.77854C14.3387 9.1122 14.6015 8.47315 15.0695 8.00197C15.5374 7.5308 16.1721 7.26609 16.8339 7.26609H21.6603V5.22546C21.6642 5.01084 21.6247 4.79766 21.5441 4.59892C21.4636 4.40018 21.3437 4.22005 21.1917 4.0695C20.8877 3.76161 20.4748 3.58768 20.0437 3.58588H1.78062C1.49921 3.58547 1.22191 3.51791 0.971448 3.38874C0.720985 3.25957 0.504493 3.07246 0.339723 2.84276ZM1.78062 0.34211C1.39847 0.34211 1.03197 0.494967 0.761751 0.767054C0.491531 1.03914 0.339723 1.40817 0.339723 1.79296C0.339723 2.17775 0.491531 2.54678 0.761751 2.81887C1.03197 3.09096 1.39847 3.24381 1.78062 3.24381H19.7039V1.79296C19.7039 1.40817 19.5521 1.03914 19.2819 0.767054C19.0117 0.494967 18.6452 0.34211 18.263 0.34211H1.78062ZM21.6603 12.0905V7.60816H16.8339C16.5498 7.60661 16.2683 7.6616 16.0054 7.76998C15.7425 7.87835 15.5035 8.03797 15.3021 8.23967C15.1007 8.44136 14.9409 8.68115 14.8319 8.94524C14.7228 9.20934 14.6667 9.49253 14.6667 9.77854V9.92009C14.6698 10.4968 14.8995 11.0488 15.3055 11.4555C15.7116 11.8622 16.2611 12.0905 16.8339 12.0905H21.6603ZM18.1693 8.98824C18.0494 8.97404 17.9279 8.98556 17.8127 9.02205C17.6975 9.05854 17.5914 9.11917 17.5011 9.19996C17.4109 9.28074 17.3387 9.37985 17.2893 9.49075C17.2398 9.60166 17.2142 9.72185 17.2142 9.84342C17.2142 9.96499 17.2398 10.0852 17.2893 10.1961C17.3387 10.307 17.4109 10.4061 17.5011 10.4869C17.5914 10.5677 17.6975 10.6283 17.8127 10.6648C17.9279 10.7013 18.0494 10.7128 18.1693 10.6986C18.393 10.6986 18.6076 10.6091 18.7657 10.4498C18.9239 10.2906 19.0128 10.0746 19.0128 9.84932C19.0128 9.62297 18.9243 9.40573 18.7665 9.24458C18.6086 9.08343 18.3941 8.99134 18.1693 8.98824ZM18.1693 11.0407C17.932 11.043 17.6994 10.9741 17.5011 10.8428C17.3028 10.7115 17.1479 10.5237 17.056 10.3034C16.9641 10.0831 16.9394 9.84022 16.9852 9.60574C17.0309 9.37125 17.1449 9.1558 17.3128 8.98683C17.4806 8.81786 17.6945 8.70303 17.9274 8.65698C18.1603 8.61094 18.4015 8.63575 18.6203 8.72828C18.8391 8.8208 19.0256 8.97683 19.156 9.17648C19.2864 9.37614 19.3548 9.61037 19.3525 9.84932C19.3525 10.1653 19.2278 10.4683 19.006 10.6917C18.7841 10.9151 18.4831 11.0407 18.1693 11.0407Z" fill="white"/>
</mask>
<g mask="url(#mask0_412_61684)">
<path d="M0 0V18H22V0H0Z" fill="url(#paint0_linear_412_61684)"/>
</g>
<path fill-rule="evenodd" clip-rule="evenodd" d="M10.0881 11.3713L9.54927 10.4159L8.60039 10.9703L5.75374 12.6216C5.62839 12.6937 5.5185 12.7901 5.43047 12.9053C5.34244 13.0205 5.27803 13.1522 5.24097 13.2927C5.20391 13.4331 5.19495 13.5796 5.2146 13.7236C5.23425 13.8676 5.28213 14.0063 5.35545 14.1315L5.89432 15.0869L6.8432 14.5325L9.68985 12.8811C9.81521 12.8091 9.92509 12.7126 10.0131 12.5974C10.1011 12.4822 10.1656 12.3506 10.2026 12.2101C10.2397 12.0696 10.2486 11.9231 10.229 11.7791C10.2093 11.6351 10.1615 11.4965 10.0881 11.3713Z" fill="url(#paint1_linear_412_61684)"/>
<path fill-rule="evenodd" clip-rule="evenodd" d="M10.9081 7.08948L10.2521 5.94531L9.11581 6.60586L5.69515 8.58751C5.54592 8.67425 5.41512 8.78974 5.31022 8.92738C5.20532 9.06502 5.12838 9.22212 5.08378 9.38971C5.03918 9.55729 5.0278 9.73208 5.05029 9.9041C5.07278 10.0761 5.1287 10.242 5.21485 10.3922L5.87087 11.5364L7.00718 10.8758L10.4278 8.8942C10.7269 8.71683 10.9448 8.42831 11.0346 8.09076C11.1244 7.75321 11.079 7.39364 10.9081 7.08948Z" fill="url(#paint2_linear_412_61684)"/>
<path fill-rule="evenodd" clip-rule="evenodd" d="M8.56522 9.97953L5.87087 11.5364L6.85489 11.9848L9.54927 10.4159L8.56522 9.97953Z" fill="url(#paint3_linear_412_61684)"/>
</g>
<defs>
<linearGradient id="paint0_linear_412_61684" x1="-3.16779e-07" y1="0.0472286" x2="21.6227" y2="18.5958" gradientUnits="userSpaceOnUse">
<stop stop-color="#24C2EE"/>
<stop offset="1" stop-color="#682CA4"/>
</linearGradient>
<linearGradient id="paint1_linear_412_61684" x1="11.9105" y1="11.6011" x2="3.28657" y2="13.8994" gradientUnits="userSpaceOnUse">
<stop stop-color="#6A65D4"/>
<stop offset="1" stop-color="#58B0EF"/>
</linearGradient>
<linearGradient id="paint2_linear_412_61684" x1="10.2873" y1="16.0513" x2="2.37413" y2="14.9381" gradientUnits="userSpaceOnUse">
<stop stop-color="#6769D5"/>
<stop offset="1" stop-color="#57B3F0"/>
</linearGradient>
<linearGradient id="paint3_linear_412_61684" x1="7.12365" y1="9.23628" x2="9.01255" y2="11.3464" gradientUnits="userSpaceOnUse">
<stop stop-color="#5FA1D7"/>
<stop offset="1" stop-color="#4148CC"/>
</linearGradient>
<clipPath id="clip0_412_61684">
<rect width="22" height="18" fill="white"/>
</clipPath>
</defs>
</svg>
