<svg width="164" height="46" viewBox="0 0 164 46" fill="none" xmlns="http://www.w3.org/2000/svg">
<path d="M89.5676 39.2493C88.8275 39.2493 88.1999 39.11 87.677 38.8396C87.154 38.5692 86.6955 38.1759 86.2852 37.6515L87.1541 36.783C87.4517 37.2009 87.7896 37.5122 88.1758 37.7253C88.5619 37.9383 89.0447 38.0448 89.6078 38.0448C90.171 38.0448 90.6135 37.9219 90.9514 37.6761C91.2893 37.4303 91.4582 37.0944 91.4582 36.6683C91.4582 36.316 91.3778 36.0292 91.2169 35.808C91.056 35.5949 90.8388 35.4065 90.5652 35.2672C90.2917 35.1279 89.994 34.9968 89.6642 34.8903C89.3424 34.7756 89.0205 34.6526 88.6907 34.5216C88.3689 34.3905 88.0712 34.2266 87.7977 34.0299C87.5241 33.8333 87.3069 33.5793 87.146 33.2597C86.9771 32.9402 86.8966 32.5387 86.8966 32.0635C86.8966 31.5309 87.0253 31.072 87.2828 30.6951C87.5402 30.3182 87.8861 30.0314 88.3367 29.8266C88.7792 29.6218 89.286 29.5234 89.8411 29.5234C90.4526 29.5234 90.9996 29.6463 91.4904 29.8839C91.9731 30.1216 92.3754 30.4411 92.6811 30.8262L91.8203 31.6947C91.5387 31.367 91.241 31.1212 90.9192 30.9573C90.5974 30.7935 90.2354 30.7115 89.817 30.7115C89.3102 30.7115 88.916 30.8262 88.6183 31.0474C88.3206 31.2687 88.1678 31.58 88.1678 31.9815C88.1678 32.3011 88.2482 32.5551 88.4172 32.7517C88.5861 32.9484 88.8033 33.1122 89.0688 33.2515C89.3424 33.3908 89.64 33.5137 89.9699 33.6284C90.2997 33.7432 90.6215 33.8661 90.9514 34.0053C91.2732 34.1364 91.5709 34.3167 91.8444 34.5216C92.1099 34.7346 92.3271 34.9968 92.4961 35.3327C92.665 35.6605 92.7455 36.0783 92.7455 36.5782C92.7455 37.4139 92.4559 38.0694 91.8847 38.5364C91.3134 39.0117 90.5411 39.2411 89.5676 39.2411V39.2493Z" fill="white"/>
<path d="M94.4531 39.1094V29.6621H95.7242V39.1094H94.4531ZM95.3059 35.4386V34.3243H97.8562C98.2102 34.3243 98.524 34.2505 98.7975 34.1113C99.0711 33.9638 99.2883 33.7589 99.4411 33.4967C99.602 33.2345 99.6745 32.9232 99.6745 32.5545C99.6745 32.1858 99.594 31.8744 99.4411 31.6122C99.2802 31.35 99.0711 31.1451 98.7975 30.9977C98.524 30.8502 98.2102 30.7846 97.8562 30.7846H95.3059V29.6703H97.9367C98.5079 29.6703 99.0309 29.785 99.4814 30.0226C99.9319 30.2602 100.294 30.588 100.559 31.0222C100.825 31.4565 100.962 31.9645 100.962 32.5545C100.962 33.1444 100.825 33.6442 100.559 34.0703C100.294 34.5045 99.9319 34.8323 99.4814 35.0781C99.0309 35.3157 98.5159 35.4386 97.9367 35.4386H95.3059Z" fill="white"/>
<path d="M106.887 39.2489C106.219 39.2489 105.6 39.126 105.029 38.872C104.457 38.618 103.951 38.2739 103.516 37.8232C103.082 37.3726 102.752 36.8564 102.51 36.2664C102.269 35.6765 102.148 35.0456 102.148 34.3737C102.148 33.7018 102.269 33.0627 102.51 32.4728C102.752 31.891 103.082 31.3748 103.508 30.9324C103.934 30.4899 104.433 30.1458 105.004 29.9C105.576 29.6542 106.195 29.5312 106.855 29.5312C107.515 29.5312 108.142 29.6542 108.713 29.9C109.285 30.1458 109.783 30.4899 110.218 30.9324C110.652 31.3748 110.99 31.891 111.231 32.481C111.473 33.0709 111.594 33.71 111.594 34.3819C111.594 35.0538 111.473 35.6847 111.231 36.2746C110.99 36.8646 110.652 37.3808 110.226 37.8232C109.799 38.2657 109.301 38.618 108.729 38.8638C108.158 39.1178 107.547 39.2407 106.887 39.2407V39.2489ZM106.863 38.0281C107.539 38.0281 108.126 37.8724 108.641 37.561C109.148 37.2497 109.55 36.8154 109.848 36.2664C110.145 35.7175 110.298 35.0865 110.298 34.3819C110.298 33.8575 110.21 33.3741 110.041 32.9316C109.872 32.4891 109.63 32.1122 109.325 31.7845C109.019 31.4568 108.657 31.2028 108.247 31.0307C107.836 30.8586 107.37 30.7685 106.871 30.7685C106.203 30.7685 105.616 30.9242 105.109 31.2273C104.602 31.5387 104.2 31.9648 103.91 32.5055C103.621 33.0463 103.468 33.6772 103.468 34.3819C103.468 34.9063 103.548 35.3979 103.717 35.8485C103.886 36.2992 104.12 36.6843 104.417 37.0038C104.715 37.3234 105.077 37.5774 105.495 37.7577C105.914 37.9379 106.372 38.0281 106.863 38.0281Z" fill="white"/>
<path d="M113.344 39.1094V29.6621H114.615V39.1094H113.344ZM114.197 34.9962V33.9228H116.731C117.278 33.9228 117.704 33.7835 118.002 33.5049C118.3 33.2263 118.445 32.8412 118.445 32.3578C118.445 31.9072 118.3 31.5303 118.002 31.2271C117.712 30.9321 117.286 30.7764 116.739 30.7764H114.189V29.6621H116.779C117.374 29.6621 117.889 29.7768 118.332 30.0062C118.774 30.2357 119.112 30.5552 119.354 30.9485C119.595 31.35 119.716 31.8088 119.716 32.325C119.716 32.8412 119.595 33.3247 119.354 33.7261C119.112 34.1276 118.774 34.439 118.332 34.6602C117.889 34.8815 117.374 34.9962 116.779 34.9962H114.189H114.197ZM118.742 39.1094L115.339 34.8733L116.538 34.4554L120.343 39.1094H118.734H118.742Z" fill="white"/>
<path d="M120.453 30.8416V29.6699H128.08V30.8416H120.453ZM123.639 39.1172V29.9485H124.91V39.1172H123.639Z" fill="white"/>
<path d="M131.611 39.2493C130.87 39.2493 130.243 39.11 129.72 38.8396C129.197 38.5692 128.73 38.1759 128.328 37.6515L129.189 36.783C129.487 37.2009 129.833 37.5122 130.219 37.7253C130.605 37.9383 131.08 38.0448 131.651 38.0448C132.222 38.0448 132.657 37.9219 132.994 37.6761C133.332 37.4303 133.501 37.0944 133.501 36.6683C133.501 36.316 133.421 36.0292 133.26 35.808C133.099 35.5949 132.882 35.4065 132.608 35.2672C132.335 35.1279 132.037 34.9968 131.715 34.8903C131.393 34.7756 131.072 34.6526 130.742 34.5216C130.42 34.3905 130.122 34.2266 129.849 34.0299C129.575 33.8333 129.358 33.5793 129.197 33.2597C129.028 32.9402 128.948 32.5387 128.948 32.0635C128.948 31.5309 129.076 31.072 129.334 30.6951C129.591 30.3182 129.937 30.0314 130.388 29.8266C130.83 29.6218 131.337 29.5234 131.892 29.5234C132.504 29.5234 133.051 29.6463 133.542 29.8839C134.024 30.1216 134.426 30.4411 134.724 30.8262L133.863 31.6947C133.582 31.367 133.284 31.1212 132.97 30.9573C132.648 30.7935 132.286 30.7115 131.868 30.7115C131.361 30.7115 130.967 30.8262 130.669 31.0474C130.372 31.2687 130.227 31.58 130.227 31.9815C130.227 32.3011 130.307 32.5551 130.476 32.7517C130.645 32.9484 130.862 33.1122 131.128 33.2515C131.393 33.3908 131.699 33.5137 132.029 33.6284C132.359 33.7432 132.681 33.8661 133.011 34.0053C133.332 34.1364 133.63 34.3167 133.904 34.5216C134.169 34.7346 134.386 34.9968 134.555 35.3327C134.724 35.6605 134.805 36.0783 134.805 36.5782C134.805 37.4139 134.515 38.0694 133.944 38.5364C133.373 39.0117 132.6 39.2411 131.627 39.2411L131.611 39.2493Z" fill="white"/>
<path d="M70.9679 19.1325L72.5528 22.3363C72.5528 22.3363 70.7266 23.8603 67.1786 23.8603C62.5526 23.8603 58.3047 20.0584 58.3047 15.3389C58.3047 10.6193 62.5365 6.75195 67.1786 6.75195C70.7346 6.75195 72.5528 8.27597 72.5528 8.27597L70.9679 11.4797C70.9679 11.4797 69.6566 10.4555 67.7498 10.4555C64.0008 10.4555 62.3515 13.0938 62.3515 15.2979C62.3515 17.502 64.0008 20.1568 67.7498 20.1568C69.6566 20.1568 70.9679 19.1325 70.9679 19.1325Z" fill="white"/>
<path d="M77.7096 23.5571H73.9766V7.04688H77.7096V13.6264H82.9872V7.04688H86.7202V23.5571H82.9872V16.9366H77.7096V23.5571Z" fill="white"/>
<path d="M94.959 7.04688C97.992 7.04688 100.293 8.71018 100.293 11.9467C100.293 14.4293 98.9414 16.0927 96.9381 16.7318L102.57 23.5571H97.8231L92.8189 17.0349V23.5571H89.0859V7.04688H94.9429H94.959ZM93.2695 14.372C94.6774 14.372 96.3669 14.2737 96.3669 12.2089C96.3669 10.1441 94.6774 10.0458 93.2695 10.0458H92.835V14.3638H93.2695V14.372Z" fill="white"/>
<path d="M110.825 6.75195C115.37 6.75195 119.063 10.4719 119.063 15.2979C119.063 20.124 115.531 23.8603 110.825 23.8603C106.118 23.8603 102.57 20.1158 102.57 15.2979C102.57 10.4801 106.319 6.75195 110.825 6.75195ZM110.825 20.2141C113.801 20.2141 115.032 17.756 115.032 15.2897C115.032 12.8234 113.721 10.3654 110.825 10.3654C107.928 10.3654 106.593 12.8234 106.593 15.2897C106.593 17.756 107.759 20.2141 110.825 20.2141Z" fill="white"/>
<path d="M124.436 23.5571H120.703V7.04688H124.436L130.945 17.2889H130.985V7.04688H134.718V23.5571H130.985L124.476 13.315H124.436V23.5571Z" fill="white"/>
<path d="M149.674 17.6904C149.674 21.7709 147.454 23.852 143.286 23.852C139.119 23.852 136.898 21.7709 136.898 17.6904V7.04688H140.631V16.5925C140.631 19.3537 141.468 20.1567 143.294 20.1567C145.121 20.1567 145.949 19.3537 145.949 16.5925V7.04688H149.682V17.6904H149.674Z" fill="white"/>
<path d="M162.577 8.30874L161.065 11.3076C161.065 11.3076 159.44 10.1687 157.75 10.1687C156.479 10.1687 155.803 10.7504 155.803 11.6517C155.803 12.553 157.348 13.2331 159.214 14.0361C161.041 14.8145 163.044 16.3795 163.044 18.5344C163.044 22.4756 160.067 23.8603 156.873 23.8603C153.044 23.8603 150.719 21.6808 150.719 21.6808L152.585 18.518C152.585 18.518 154.765 20.378 156.592 20.378C157.404 20.378 158.949 20.296 158.949 18.7556C158.949 17.5512 157.203 17.0186 155.256 16.0354C153.293 15.0521 152.143 13.5117 152.143 11.791C152.143 8.71023 154.838 6.75195 157.485 6.75195C160.461 6.75195 162.561 8.30874 162.561 8.30874H162.577Z" fill="white"/>
<path d="M40.3791 0.320312H4.44099C1.98719 0.320312 0 2.33595 0 4.81863V41.182C0 43.6647 1.98719 45.6803 4.44099 45.6803H40.3791C42.8328 45.6803 44.82 43.6647 44.82 41.182V4.81863C44.82 2.33595 42.8328 0.320312 40.3791 0.320312Z" fill="url(#paint0_radial_412_61549)"/>
<path d="M44.8207 41.1747V32.0715L32.3586 10.5059L11.8594 22.4768L17.8611 32.9974L12.4145 36.1847L17.8289 45.673H40.3556C42.8094 45.673 44.8046 43.6573 44.8046 41.1665L44.8207 41.1747Z" fill="#102D69"/>
<path fill-rule="evenodd" clip-rule="evenodd" d="M29.6802 26.4831L27.7091 23.0254L24.2899 25.0246L14.0403 31.0142C12.1577 32.1121 11.506 34.5538 12.5922 36.463L14.5632 39.9207L17.9824 37.9214L28.2321 31.9319C30.1147 30.8339 30.7663 28.3922 29.6802 26.4831Z" fill="#D7D8D8"/>
<path fill-rule="evenodd" clip-rule="evenodd" d="M32.6242 10.9643L30.2589 6.81836L26.1558 9.2109L13.8627 16.3967C11.6019 17.7159 10.8216 20.6492 12.133 22.9353L14.4983 27.0812L18.6013 24.6887L30.8945 17.5029C33.1552 16.1837 33.9355 13.2504 32.6242 10.9643Z" fill="white"/>
<path fill-rule="evenodd" clip-rule="evenodd" d="M24.1703 21.4277L14.5 27.0813L18.0479 28.6791L27.7264 23.0255L24.1784 21.4277H24.1703Z" fill="#B0B0AF"/>
<defs>
<radialGradient id="paint0_radial_412_61549" cx="0" cy="0" r="1" gradientUnits="userSpaceOnUse" gradientTransform="translate(0.367667 1.69357) scale(57.3626 58.0438)">
<stop stop-color="#164194"/>
<stop offset="0.62" stop-color="#14387F"/>
</radialGradient>
</defs>
</svg>
