<svg width="178" height="195" viewBox="0 0 178 195" fill="none" xmlns="http://www.w3.org/2000/svg">
<g clip-path="url(#clip0_29_31508)">
<path d="M153.682 3.15234C145.708 3.15234 139.111 9.65563 139.111 17.7355C139.111 25.7168 145.609 32.3186 153.682 32.3186C161.657 32.3186 168.154 25.8153 168.154 17.7355C168.154 9.65563 161.657 3.15234 153.682 3.15234ZM153.781 6.89666C159.589 6.89666 164.413 11.6263 164.413 17.5384C164.413 23.4505 159.688 28.1801 153.781 28.1801C147.972 28.1801 143.246 23.4505 143.246 17.5384C143.246 11.6263 147.972 6.89666 153.781 6.89666Z" fill="white"/>
<path d="M83.0929 31.4332C83.0929 32.4186 82.9945 33.4039 82.7975 34.3893C82.6006 35.3746 82.3053 36.2614 81.9115 37.2468C81.5177 38.1336 81.0254 39.0204 80.5332 39.8087C79.9425 40.5969 79.3518 41.3852 78.6626 42.075C77.9734 42.7647 77.1858 43.3559 76.3982 43.9471C75.6106 44.5383 74.7245 44.9325 73.8385 45.3266C72.9524 45.7207 71.9679 46.0163 70.9834 46.2134C69.9989 46.4105 69.0144 46.509 68.0298 46.509C67.0453 46.509 66.0608 46.4105 65.0763 46.2134C64.0918 46.0163 63.2057 45.7207 62.2212 45.3266C61.3352 44.9325 60.4491 44.5383 59.6615 43.9471C58.8739 43.3559 58.0863 42.7647 57.3971 42.075C56.7079 41.3852 56.1172 40.5969 55.5265 39.8087C54.9358 39.0204 54.542 38.1336 54.1482 37.2468C53.7544 36.3599 53.4591 35.3746 53.2622 34.3893C53.0652 33.4039 52.9668 32.4186 52.9668 31.4332C52.9668 30.4479 53.0652 29.4625 53.2622 28.4772C53.4591 27.4918 53.7544 26.605 54.1482 25.6197C54.542 24.7329 54.9358 23.8461 55.5265 23.0578C56.1172 22.2695 56.7079 21.4812 57.3971 20.7915C58.0863 20.1017 58.8739 19.5105 59.6615 18.9193C60.4491 18.3281 61.3352 17.934 62.2212 17.5398C63.1073 17.1457 64.0918 16.8501 65.0763 16.653C66.0608 16.456 67.0453 16.3574 68.0298 16.3574C69.0144 16.3574 69.9989 16.456 70.9834 16.653C71.9679 16.8501 72.854 17.1457 73.8385 17.5398C74.7245 17.934 75.6106 18.4266 76.3982 18.9193C77.1858 19.5105 77.9734 20.1017 78.6626 20.7915C79.3518 21.4812 79.9425 22.2695 80.5332 23.0578C81.1239 23.8461 81.5177 24.7329 81.9115 25.6197C82.3053 26.5065 82.6006 27.4918 82.7975 28.4772C82.9945 29.4625 83.0929 30.4479 83.0929 31.4332Z" fill="white"/>
<path d="M98.6486 34.1918C115.188 25.0281 128.873 11.923 142.558 -0.689453C138.915 7.48892 134.682 15.5688 128.873 22.4662C119.816 33.4035 110.463 44.8335 97.6641 51.5339C93.6276 54.0958 87.1298 50.6471 88.2128 45.4247C88.705 39.8083 94.5136 36.9508 98.6486 34.1918Z" fill="white"/>
<path d="M65.5681 107.601C70.2938 106.221 74.2318 111.739 73.3458 116.075C73.1489 129.18 65.9619 140.905 59.9564 152.138C50.8004 166.623 42.9243 181.896 32.5869 195.592C35.6389 183.866 39.6754 172.338 42.5305 160.514C46.4686 145.241 49.9143 129.574 57.1013 115.286C58.9719 112.035 61.4332 107.995 65.5681 107.601Z" fill="white"/>
<path d="M97.5652 81.9806C100.519 80.7982 104.26 81.0938 106.327 83.8528C109.379 87.8927 109.773 93.3121 109.675 98.1403C107.016 119.719 93.2333 137.653 79.4501 153.615C82.8959 143.269 88.7045 133.711 90.9689 122.873C91.9534 118.636 92.4457 114.3 93.1348 109.964C91.2643 111.738 89.6891 113.906 87.4247 115.187C84.1758 116.468 80.73 114.399 79.647 111.344C77.4811 107.107 78.564 102.082 80.3362 97.8447C83.8804 90.7502 89.7875 84.2469 97.5652 81.9806Z" fill="white"/>
<path d="M33.0796 65.5251C38.2976 61.0911 43.8108 55.6717 51.1947 55.7702C54.9358 55.4746 58.0863 59.8101 56.8064 63.3574C56.0188 66.5105 52.7699 67.9885 50.4071 69.9592C39.3805 77.2507 27.9602 84.2467 18.4104 93.6075C12.1095 99.7166 7.18695 107.107 0 112.231C6.89159 94.1987 19.0011 78.5317 33.0796 65.5251Z" fill="white"/>
<path d="M136.552 34.5855C150.335 33.6001 164.118 33.6987 177.901 34.4869C176.917 39.3151 175.342 44.0448 174.259 48.873C173.274 54.0953 172.88 59.4162 171.896 64.6385L168.45 64.54C168.056 55.5733 169.927 46.7052 172.388 38.1327C162.248 38.0342 152.009 38.0342 141.868 38.0342C144.133 46.0155 145.905 54.1939 145.806 62.4708C146.003 64.2444 143.64 64.3429 142.557 65.1312C141.671 58.825 141.376 52.4202 139.604 46.3111C138.619 42.3697 137.142 38.6254 136.552 34.5855Z" fill="white"/>
</g>
<defs>
<clipPath id="clip0_29_31508">
<rect width="178" height="195" fill="white"/>
</clipPath>
</defs>
</svg>
