<svg width="172" height="178" viewBox="0 0 172 178" fill="none" xmlns="http://www.w3.org/2000/svg">
<path d="M35.4997 157.501C35.4992 158.575 35.3988 159.646 35.1997 160.701C34.9921 161.727 34.6909 162.731 34.2997 163.701C33.8814 164.676 33.3795 165.613 32.7997 166.501C32.2102 167.422 31.5044 168.262 30.6997 169.001C29.9715 169.75 29.1671 170.42 28.2997 171.001C27.3871 171.6 26.4153 172.102 25.3997 172.501C24.4491 172.968 23.44 173.304 22.3997 173.501C20.2852 173.902 18.1143 173.902 15.9997 173.501C14.9269 173.306 13.8846 172.97 12.8997 172.501C11.9263 172.08 10.9898 171.578 10.0997 171.001C9.2004 170.422 8.36271 169.752 7.59971 169.001C6.85543 168.233 6.18576 167.396 5.59971 166.501C4.98267 165.636 4.4786 164.695 4.09971 163.701C3.70857 162.731 3.4073 161.727 3.19971 160.701C2.79932 158.587 2.79932 156.416 3.19971 154.301C3.4073 153.276 3.70857 152.272 4.09971 151.301C4.4786 150.308 4.98267 149.367 5.59971 148.501C6.18576 147.607 6.85543 146.77 7.59971 146.001C8.36271 145.251 9.2004 144.581 10.0997 144.001C10.9898 143.425 11.9263 142.923 12.8997 142.501C13.8846 142.033 14.9269 141.697 15.9997 141.501C18.1143 141.101 20.2852 141.101 22.3997 141.501C23.44 141.699 24.4491 142.035 25.3997 142.501C26.4153 142.901 27.3871 143.403 28.2997 144.001C29.1671 144.583 29.9715 145.253 30.6997 146.001C31.5044 146.741 32.2102 147.581 32.7997 148.501C33.3795 149.39 33.8814 150.327 34.2997 151.301C34.6909 152.272 34.9921 153.276 35.1997 154.301C35.3988 155.357 35.4992 156.428 35.4997 157.501Z" fill="white"/>
<path d="M153.1 16.4009C153.1 17.4009 153 18.4009 152.9 19.4009C152.706 20.3974 152.404 21.3698 152 22.3009C151.577 23.2418 151.075 24.1451 150.5 25.0009C149.952 25.8345 149.315 26.6057 148.6 27.3009C147.879 27.9878 147.11 28.6227 146.3 29.2009C144.585 30.2946 142.688 31.0734 140.7 31.5009C138.72 31.9023 136.68 31.9023 134.7 31.5009C133.703 31.307 132.731 31.0052 131.8 30.6009C130.861 30.214 129.957 29.7455 129.1 29.2009C128.289 28.6227 127.521 27.9878 126.8 27.3009C126.085 26.6057 125.447 25.8345 124.9 25.0009C124.324 24.1451 123.822 23.2418 123.4 22.3009C123.074 21.3516 122.807 20.3831 122.6 19.4009C122.201 17.4208 122.201 15.3811 122.6 13.4009C122.807 12.4188 123.074 11.4503 123.4 10.5009C123.822 9.56007 124.324 8.65682 124.9 7.80095C125.447 6.9674 126.085 6.19617 126.8 5.50095C127.495 4.78578 128.266 4.14867 129.1 3.60095C129.934 3.01781 130.842 2.54709 131.8 2.20095C132.731 1.79669 133.703 1.49492 134.7 1.30095C136.68 0.902289 138.72 0.902289 140.7 1.30095C141.696 1.49492 142.669 1.79669 143.6 2.20095C144.567 2.52576 145.477 2.998 146.3 3.60095C147.133 4.14867 147.905 4.78578 148.6 5.50095C149.315 6.19617 149.952 6.9674 150.5 7.80095C151.075 8.65682 151.577 9.56007 152 10.5009C152.404 11.4321 152.706 12.4045 152.9 13.4009C153 14.4009 153.1 15.4009 153.1 16.4009Z" fill="white"/>
<path d="M31.6994 30.1006C51.2994 28.2006 70.9994 26.6006 90.6994 25.0006C95.5994 25.1006 100.499 24.5006 105.199 25.8006C108.199 26.6006 111.299 29.1006 111.199 32.5006C111.099 35.9006 107.199 38.2006 103.999 38.8006C90.2994 40.5006 76.5994 38.4006 62.8994 37.1006L26.6994 33.2006C24.4075 33.0707 22.1317 32.736 19.8994 32.2006C23.5994 30.6006 27.6994 30.6006 31.6994 30.1006Z" fill="white"/>
<path d="M144.8 45.3008C144.2 41.3008 148.2 38.3008 151.8 38.3008C155.4 38.3008 160.7 43.4008 162.9 47.7008C165.4 53.6008 167.8 59.5008 168.8 65.9008C169.3 70.1008 168.4 74.8008 165.1 77.7008C159.2 82.7008 151.5 84.7008 144 86.0008C136.5 87.3008 131.7 87.8008 125.5 87.8008C125.7 86.0008 127.6 85.6008 129 84.9008C138.3 81.3008 147.8 77.5008 155.8 71.3008C156.5 70.6008 157.7 69.9008 157.2 68.8008C156.1 65.7008 154 63.2008 152.4 60.4008C149.6 55.5008 145.9 50.9008 144.8 45.3008Z" fill="white"/>
<path d="M88.8993 71.3001C91.9993 70.0001 95.8993 70.1001 98.5993 72.2001C101.299 74.3001 100.199 76.0001 99.5993 77.8001C97.5993 84.5001 93.2993 90.1001 88.7993 95.2001C84.2993 100.3 80.0993 104.6 75.3993 108.9C72.9993 111 70.4993 113.3 67.1993 113.9C65.7255 114.272 64.1682 114.115 62.7979 113.457C61.4277 112.799 60.3313 111.682 59.6993 110.3C59.2993 107.3 60.3993 104.3 61.7993 101.6C64.4407 96.6213 67.5909 91.9296 71.1993 87.6001C76.2993 81.4001 81.5993 74.9001 88.8993 71.3001Z" fill="white"/>
<path d="M105.7 85.1005C109.3 83.4005 114.3 83.1005 117.4 86.1005C120.5 89.1005 118.8 92.3005 117.8 95.2005C115.68 100.687 112.673 105.789 108.9 110.301C88.9998 133.401 66.0998 153.701 43.9998 174.701C43.4772 175.189 42.9077 175.624 42.2998 176.001C43.5998 172.101 45.9998 168.801 47.9998 165.301C61.8998 143.001 75.7998 120.901 90.9998 99.5005C95.2998 94.2005 99.3998 88.3005 105.7 85.1005Z" fill="white"/>
</svg>
