<svg width="208" height="171" viewBox="0 0 208 171" fill="none" xmlns="http://www.w3.org/2000/svg">
<g clip-path="url(#clip0_29_31502)">
<path d="M53.9096 152.296C53.909 153.33 53.8228 154.364 53.652 155.384C53.4573 156.409 53.17 157.414 52.7936 158.387C52.3588 159.329 51.8715 160.246 51.3342 161.133C50.7234 161.971 50.0641 162.774 49.3598 163.535C48.5977 164.239 47.7951 164.898 46.9562 165.509C46.0875 166.079 45.1679 166.567 44.2092 166.967C43.2381 167.372 42.2325 167.687 41.2046 167.911C39.1588 168.255 37.0698 168.255 35.0239 167.911C33.996 167.687 32.9905 167.372 32.0193 166.967C31.0606 166.567 30.141 166.079 29.2723 165.509C28.4334 164.898 27.6308 164.239 26.8687 163.535C26.1644 162.774 25.5051 161.971 24.8943 161.133C24.3241 160.265 23.8355 159.346 23.4349 158.387C23.0585 157.414 22.7712 156.409 22.5765 155.384C22.2323 153.34 22.2323 151.252 22.5765 149.207C22.7712 148.182 23.0585 147.177 23.4349 146.204C23.8355 145.245 24.3241 144.326 24.8943 143.458C25.5051 142.62 26.1644 141.817 26.8687 141.056C27.6308 140.352 28.4334 139.693 29.2723 139.082C30.141 138.512 31.0606 138.024 32.0193 137.624C32.9905 137.22 33.996 136.904 35.0239 136.68C37.0698 136.336 39.1588 136.336 41.2046 136.68C42.2325 136.904 43.2381 137.22 44.2092 137.624C45.1679 138.024 46.0875 138.512 46.9562 139.082C47.7951 139.693 48.5977 140.352 49.3598 141.056C50.0641 141.817 50.7234 142.62 51.3342 143.458C51.8715 144.345 52.3588 145.262 52.7936 146.204C53.17 147.177 53.4573 148.182 53.652 149.207C53.8228 150.227 53.909 151.261 53.9096 152.296Z" fill="white"/>
<path d="M168.083 15.5308C168.079 16.5087 167.992 17.4845 167.825 18.448C167.591 19.3786 167.304 20.2952 166.967 21.1936C166.579 22.0872 166.12 22.948 165.593 23.7676C165.033 24.5935 164.401 25.3687 163.705 26.0843C163.009 26.7779 162.231 27.3831 161.387 27.8861C160.606 28.4767 159.737 28.94 158.812 29.2589C157.941 29.673 157.016 29.9619 156.065 30.1169C155.082 30.3582 154.072 30.4735 153.06 30.4601C152.077 30.4681 151.096 30.3528 150.141 30.1169C149.19 29.9619 148.265 29.673 147.394 29.2589C146.469 28.94 145.6 28.4767 144.819 27.8861C143.975 27.3831 143.197 26.7779 142.501 26.0843C141.805 25.3687 141.173 24.5935 140.613 23.7676C140.086 22.948 139.627 22.0872 139.239 21.1936C138.902 20.2952 138.615 19.3786 138.381 18.448C138.213 17.4845 138.127 16.5087 138.123 15.5308C138.12 14.5526 138.206 13.5761 138.381 12.6136C138.615 11.655 138.902 10.7098 139.239 9.78219C139.627 8.88866 140.086 8.02786 140.613 7.20819C141.173 6.409 141.805 5.66234 142.501 4.97738C143.172 4.23224 143.953 3.59548 144.819 3.08977C145.6 2.49914 146.469 2.03579 147.394 1.71697C148.265 1.30283 149.19 1.01396 150.141 0.858963L153.06 0.601562C154.067 0.602118 155.072 0.688228 156.065 0.858963C157.016 1.01396 157.941 1.30283 158.812 1.71697C159.737 2.03579 160.606 2.49914 161.387 3.08977C162.252 3.59548 163.034 4.23224 163.705 4.97738C164.4 5.66234 165.033 6.409 165.593 7.20819C166.12 8.02786 166.579 8.88866 166.967 9.78219C167.304 10.7098 167.59 11.655 167.825 12.6136C168 13.5761 168.086 14.5526 168.083 15.5308Z" fill="white"/>
<path d="M50.218 28.7445C69.2754 26.9427 88.4186 25.3983 107.562 23.8539C112.197 23.9397 117.005 23.3391 121.554 24.6261C124.473 25.3983 127.478 27.8865 127.306 31.1469C127.134 34.4073 123.529 36.6381 120.438 37.2387C107.133 38.8689 93.8268 36.8097 80.521 35.6085L45.4108 31.8333C43.186 31.6936 40.9757 31.378 38.8008 30.8895C42.3204 29.2593 46.3551 29.2593 50.218 28.7445Z" fill="white"/>
<path d="M159.927 43.5009C159.412 39.7257 163.275 36.7227 166.794 36.7227C171.688 37.4949 175.379 41.6133 177.525 45.9033C180.014 51.5661 182.332 57.3147 183.276 63.4066C183.792 67.525 182.847 72.0724 179.671 74.9896C174.005 79.7944 166.451 81.682 159.24 82.969C153.28 83.9694 147.255 84.5429 141.213 84.685C141.47 82.969 143.359 82.54 144.647 81.9394C153.746 78.4216 162.931 74.7322 170.657 68.7262C171.344 68.1256 172.46 67.3534 171.945 66.3238C170.915 63.3208 168.855 60.8325 167.395 58.0869C164.648 53.3679 161.043 48.9921 159.927 43.5009Z" fill="white"/>
<path d="M105.76 68.7265C107.279 68.0455 108.95 67.7743 110.607 67.9398C112.264 68.1054 113.848 68.7021 115.203 69.6703C116.748 70.9573 116.662 73.2739 116.147 75.0757C114.173 81.5107 110.052 86.9161 105.674 91.8926C101.296 96.869 97.2613 100.987 92.7116 105.106C90.308 107.165 87.9043 109.482 84.7281 110.082C83.2927 110.42 81.7849 110.254 80.4568 109.614C79.1287 108.974 78.0607 107.897 77.4314 106.564C77.0022 103.561 78.1181 100.73 79.4058 98.0702C81.9965 93.2498 85.0743 88.7073 88.5911 84.5137C93.5701 78.5935 98.7207 72.2443 105.76 68.7265Z" fill="white"/>
<path d="M33.6505 38.6102C35.7966 36.98 39.0587 38.9534 38.887 41.6132C39.1445 57.0572 38.7153 72.5013 39.0587 88.0311H74.4264C76.9159 87.6879 79.2337 90.3477 78.2036 92.6644C77.1734 94.981 75.8858 94.8094 74.3406 94.8952C62.2366 94.981 50.1326 94.7236 38.0286 94.981C25.5812 116.517 13.1338 138.139 0.600586 159.674V145.861C10.3868 129.044 20.0013 112.227 29.7875 95.41C30.8177 93.6082 32.277 91.8064 32.1053 89.6613C32.0195 74.0457 32.1053 58.43 32.0195 42.8144C32.0195 41.27 32.1912 39.554 33.6505 38.6102Z" fill="white"/>
<path d="M137.865 91.6355C137.608 89.4905 139.84 87.8603 141.9 88.0319H207.485V94.896H141.986C140.011 95.0676 137.951 93.6948 137.865 91.6355Z" fill="white"/>
<path d="M122.07 82.1111C125.589 80.3951 130.397 80.1377 133.401 83.0549C136.406 85.9721 134.775 89.0609 133.83 91.8923C131.738 97.2123 128.812 102.165 125.16 106.564C105.845 128.958 83.6116 148.606 62.2364 169.027L60.5195 170.228C61.8072 166.453 64.125 163.278 66.0994 159.846C79.4911 138.225 93.0544 116.774 107.734 96.0966C111.94 90.9485 115.975 85.1999 122.07 82.1111Z" fill="white"/>
</g>
<defs>
<clipPath id="clip0_29_31502">
<rect width="208" height="171" fill="white"/>
</clipPath>
</defs>
</svg>
