<svg width="153" height="206" viewBox="0 0 153 206" fill="none" xmlns="http://www.w3.org/2000/svg">
<path d="M146.687 4.46559C147.827 3.32747 148.879 1.92671 150.633 1.66406C147.652 7.9675 142.566 12.8702 138.709 18.6483C124.592 38.4341 110.914 58.6577 95.132 77.3054C91.8879 81.5077 86.1011 83.959 80.8404 82.4707C76.8948 80.8073 76.7194 75.4669 78.3853 72.0525C87.767 55.5935 101.883 42.5489 116.263 30.3797L146.687 4.46559Z" fill="white"/>
<path d="M3.9458 2.45117C7.80368 4.37722 10.5217 7.96668 13.7659 10.8558C29.8988 26.1766 47.2593 40.1843 62.6908 56.2931C66.3733 60.3203 70.5819 63.9973 72.5985 69.0751C73.826 72.3143 74.7028 75.9038 73.563 79.2306C73.1618 80.3737 72.3949 81.3531 71.3807 82.0177C70.3665 82.6823 69.1614 82.995 67.9515 82.9076C65.9349 83.1702 64.5321 81.4193 62.9538 80.3687C47.347 68.2871 36.3871 51.653 25.6025 35.4567C19.465 25.914 12.9767 16.6339 6.66385 7.17875C5.69938 5.60289 4.03348 4.37722 3.9458 2.45117Z" fill="white"/>
<path d="M70.4938 136.05C71.0754 134.542 72.0061 133.192 73.21 132.112C74.4138 131.032 75.8566 130.251 77.4205 129.834C78.6326 129.935 79.7993 130.341 80.8114 131.015C81.8235 131.689 82.6478 132.608 83.2073 133.686C84.8732 136.838 84.4348 140.427 84.4348 143.842C83.6457 163.452 82.3305 183.063 79.9631 202.499C79.9503 202.844 79.8352 203.179 79.6324 203.459C79.4295 203.739 79.148 203.954 78.8233 204.075C76.5437 194.007 74.8778 183.851 73.1242 173.695C71.3706 163.54 70.0554 154.26 69.354 144.367C69.2953 141.552 69.6799 138.745 70.4938 136.05Z" fill="white"/>
<path d="M100.656 131.671C103.269 131.4 105.909 131.778 108.341 132.771C110.773 133.764 112.922 135.34 114.597 137.362C116.876 139.9 117.841 143.315 118.279 146.729C118.194 149.51 117.401 152.223 115.974 154.613C114.547 157.002 112.534 158.99 110.125 160.387C108.148 161.481 105.96 162.14 103.707 162.322C101.453 162.503 99.1876 162.201 97.0607 161.437C89.9587 159.249 85.1364 151.194 86.89 143.928C87.6197 140.707 89.3386 137.795 91.8065 135.598C94.2745 133.4 97.3682 132.027 100.656 131.671Z" fill="white"/>
</svg>
