<svg width="190" height="206" viewBox="0 0 190 206" fill="none" xmlns="http://www.w3.org/2000/svg">
<path d="M105.323 9.02475C105.845 7.02897 105.758 4.68608 107.326 3.21094C108.459 10.3264 108.11 17.7021 109.766 24.7307C110.811 30.0239 113.25 34.7964 115.428 39.7425C117.606 44.6886 119.871 49.8082 123.182 54.3205C128.147 61.8697 134.855 68.2042 140.953 74.8858C144.525 78.617 148.271 82.9557 148.097 88.4224C148.216 89.7915 147.891 91.1626 147.17 92.334C146.448 93.5055 145.369 94.4155 144.089 94.9304C140.43 95.7114 137.033 93.7156 134.158 91.8066C125.969 86.4266 120.394 78.0964 115.602 69.8529C109.14 58.2165 105.361 45.2926 104.539 32.0197C104.103 24.3836 103.493 16.574 105.323 9.02475Z" fill="white"/>
<path d="M172.402 18.3972C175.248 15.0422 178.462 12.0152 181.985 9.37277L183.204 9.19922C179.284 16.2279 174.144 22.5623 171.269 30.1984C168.395 37.8344 168.133 43.9086 166.391 50.7637C164.126 62.2178 165.868 73.9322 167.349 85.473C168.046 90.4191 168.917 95.8858 166.391 100.485C164.823 103.522 161.251 105.691 157.854 104.65C154.456 103.609 153.585 100.225 152.278 97.4478C148.794 88.163 148.794 78.0973 149.926 68.3787C151.059 58.6601 153.759 49.115 158.202 40.3509C162.645 31.5868 167.262 25.4258 172.402 18.3972Z" fill="white"/>
<path d="M84.328 38.5273C90.6874 37.7464 97.4825 41.1305 100.183 46.9443C104.539 54.4936 100.532 65.08 92.5169 68.2906C89.9807 69.3529 87.2117 69.7435 84.4792 69.4241C81.7466 69.1048 79.1435 68.0865 76.9231 66.4683C71.8704 62.5635 69.2569 55.5349 71.4348 49.374C72.3406 46.5403 74.0312 44.0189 76.3122 42.1C78.5931 40.1811 81.3716 38.9427 84.328 38.5273Z" fill="white"/>
<path d="M58.1929 62.2175C60.6321 61.5234 63.2456 61.3498 65.5106 62.7382C67.7756 64.1266 71.6087 68.2049 74.1351 71.4155L81.8884 81.6548C87.0994 87.8159 93.0705 93.297 99.6601 97.9682C105.497 101.613 111.682 104.823 117.78 108.034C118.693 108.46 119.519 109.048 120.219 109.769C119.01 109.767 117.807 109.592 116.648 109.249L98.092 103.956C90.1644 101.873 82.9338 97.7079 76.1388 93.1956C69.3437 88.6834 63.2456 83.3903 58.6284 76.7087C56.799 73.932 55.0567 70.8081 55.4051 67.4239C55.7536 64.0398 57.0604 63.7795 58.1929 62.2175Z" fill="white"/>
<path d="M29.3577 112.026C30.8387 108.208 35.2816 105.257 39.2889 106.819C43.2963 108.381 43.9061 113.414 44.6901 117.232C46.6938 125.736 45.0386 134.413 43.3834 142.83C40.211 156.665 33.9258 169.601 25.0019 180.663C21.2183 185.447 17.1454 189.997 12.8057 194.287C10.0179 196.63 6.96888 198.626 3.91982 200.708H2.7002C6.18484 195.849 10.1051 191.337 13.6768 186.564C16.2373 182.694 18.3144 178.527 19.862 174.155C22.2142 166.519 25.5246 159.144 26.57 151.16C27.8767 145 27.4411 138.665 27.7896 132.417C28.1381 126.17 26.4829 118.447 29.3577 112.026Z" fill="white"/>
<path d="M93.7366 107.859C96.842 107.477 99.9912 108.023 102.784 109.43C105.576 110.836 107.885 113.038 109.417 115.755C114.209 123.565 109.94 134.845 101.316 137.796C98.7755 138.763 96.0263 139.055 93.3383 138.645C90.6502 138.234 88.1156 137.134 85.9833 135.453C84.0542 133.833 82.5246 131.793 81.5126 129.492C80.5006 127.19 80.0332 124.687 80.1465 122.176C80.4624 118.614 81.9761 115.263 84.4425 112.664C86.909 110.066 90.1837 108.372 93.7366 107.859Z" fill="white"/>
<path d="M48.2619 115.062C48.4361 110.984 53.4017 108.467 56.9735 110.376C66.2949 114.281 73.0028 122.525 78.1427 131.028C86.1309 143.848 90.7173 158.478 91.4714 173.547C91.7328 176.671 91.5585 179.795 91.7328 182.919C91.915 189.345 90.9413 195.751 88.8579 201.836C87.5512 198.365 87.9868 194.547 87.4641 190.815C87.1537 183.025 85.2568 175.379 81.8887 168.341C79.101 162.874 77.0973 157.061 73.7869 151.854C68.2986 143.177 60.7195 136.061 53.7502 128.425C50.5269 124.868 47.565 120.182 48.2619 115.062Z" fill="white"/>
<path d="M118.39 135.02C121.003 134.412 123.704 133.718 126.23 134.933C132.328 137.623 136.51 143.003 141.388 147.255C147.101 153.254 153.749 158.294 161.077 162.18C169.091 167.126 178.5 168.775 186.95 172.94C184.685 173.721 182.246 172.853 179.894 172.679C169.701 171.031 159.16 170.77 149.49 166.866C139.82 162.961 130.586 158.188 123.007 151.16C120.219 148.556 117.693 145.519 116.735 141.788C115.776 138.057 117.344 137.102 118.39 135.02Z" fill="white"/>
</svg>
