<svg width="236" height="196" viewBox="0 0 236 196" fill="none" xmlns="http://www.w3.org/2000/svg">
<g clip-path="url(#clip0_29_31512)">
<path d="M168.6 1.10069C169.6 -0.599311 169.2 2.00069 169.2 2.50069C163.4 26.2007 157.4 49.8007 151.5 73.4007C150.2 80.0007 148.8 87.1007 144.3 92.3007C140.2 94.6007 134.3 92.9007 131.9 88.8007C131.3 84.1007 132.5 79.5007 133.7 75.1007C136 68.0007 138.2 60.7007 141.8 54.1007C145 48.1007 147.6 41.7007 150.2 35.4007C155.2 25.2007 160.6 15.3007 165.9 5.30069C166.7 3.90069 167.4 2.30069 168.6 1.10069Z" fill="white"/>
<path d="M103.1 54.0999C109.7 53.4999 116.7 56.1999 120.9 61.4999C123.8 64.7999 125.1 69.0999 125.5 73.3999C125.3 79.9999 122 86.3999 116.4 90.0999C111.2 93.3999 104.4 94.4999 98.5003 92.1999C89.5003 89.3999 83.3003 79.0999 85.5003 69.7999C87.3003 61.3999 94.7003 54.9999 103.1 54.0999Z" fill="white"/>
<path d="M194.8 53.6992L195.9 54.5992C189.8 78.2992 184 102.099 178 125.899C176.8 131.699 175.7 137.699 172.6 142.799C170 148.699 161 146.699 158.3 141.899C157.7 137.199 158.9 132.599 160.1 128.099C162.4 120.999 164.6 113.699 168.1 107.099C171.3 101.099 173.9 94.6992 176.5 88.3992C182.4 76.6992 188.7 65.1992 194.8 53.6992Z" fill="white"/>
<path d="M0 96.0996C28 96.2996 56 97.7996 84.1 98.2996C87.4 98.5996 90.7 99.2996 94 100.2C98.7 102.9 98.1 110.2 94.8 113.8C92.2 115.2 89.1 115.2 86.3 115.2C75.9 115.3 65.4 114 55.3 111C47.6 108.8 39.5 108.2 31.8 105.9C22.5 103.4 13.2 100.6 3.9 97.9996C2.5 97.6996 1 97.2996 0 96.0996Z" fill="white"/>
<path d="M129.6 107C136.2 106.4 143.1 109.1 147.3 114.3C150.2 117.6 151.5 122 152 126.3C151.8 132.8 148.5 139.3 143 142.9C137.7 146.3 130.9 147.3 125 145.1C115.9 142.3 109.8 132 112 122.7C113.8 114.4 121.1 107.9 129.6 107Z" fill="white"/>
<path d="M26.5 149C54.5 149.3 82.6 150.7 110.6 151.3C113.9 151.6 117.2 152.3 120.4 153.2C125.2 155.9 124.5 163.2 121.2 166.8C119.2 167.8 116.8 168.1 114.6 168.1C103.8 168.3 92.9 167.2 82.5 164.1C76.3 162.4 69.9 161.4 63.5 160.2C52.6 157.5 41.8 154.2 31 151.2C29.4 150.8 27.5 150.5 26.5 149Z" fill="white"/>
<path d="M93.4997 188.4C110.2 187.1 124 174.9 140.9 174.9C159.2 174.8 173.9 188.7 192 189.7C202.9 189.4 211.9 182.5 221.3 177.8C224.9 176.1 228.9 174.2 233 174.5C235.5 174.7 236.5 178.8 233.9 179.6C230 180.3 226 181.4 222.6 183.5C212.5 189 202.2 196.2 190.1 195.2C173.2 194.4 159.6 181.7 142.8 180.6C129.7 180.2 118.3 187.5 106.4 191.7C100.3 193.9 93.6997 194.5 87.1997 194C75.6997 192.9 66.1997 184.7 54.5997 183.9C45.0997 183.4 35.7997 186.5 26.8997 189.5C24.3997 190.4 21.6997 191.6 18.9997 190.8C17.7997 189.8 18.0997 188.3 18.0997 186.9C21.8997 184.8 26.0997 183.6 30.2997 182.3C38.3997 179.7 46.8997 177.6 55.4997 178.3C61.3997 179 67.0997 180.6 72.3997 183.3C78.8997 186.3 86.0997 189.2 93.4997 188.4Z" fill="white"/>
</g>
<defs>
<clipPath id="clip0_29_31512">
<rect width="235.4" height="195.1" fill="white"/>
</clipPath>
</defs>
</svg>
