<svg width="214" height="123" viewBox="0 0 214 123" fill="none" xmlns="http://www.w3.org/2000/svg">
<path d="M186.4 39.2996C186.414 40.0343 186.381 40.7692 186.3 41.4996L186 43.6996C185.8 44.3996 185.7 45.0996 185.5 45.8996L184.7 47.9996C184.4 48.5996 184.1 49.2996 183.7 49.9996L182.6 51.8996L181.3 53.6996L179.8 55.2996C179.285 55.8549 178.715 56.3573 178.1 56.7996L176.3 58.1996C175.702 58.6245 175.066 58.9928 174.4 59.2996C173.765 59.6925 173.096 60.0272 172.4 60.2996L170.3 60.9996C169.584 61.2587 168.849 61.4593 168.1 61.5996L165.9 61.8996H161.5L159.3 61.5996C158.552 61.4593 157.816 61.2587 157.1 60.9996L155 60.2996C154.305 60.0272 153.635 59.6925 153 59.2996C152.334 58.9928 151.698 58.6245 151.1 58.1996C150.441 57.8149 149.835 57.3441 149.3 56.7996C148.665 56.3828 148.093 55.8778 147.6 55.2996L146.1 53.6996L144.8 51.8996L143.6 49.9996L142.7 47.9996C142.39 47.317 142.123 46.6156 141.9 45.8996C141.697 45.1751 141.53 44.4408 141.4 43.6996C141.202 42.983 141.101 42.2431 141.1 41.4996C141.019 40.7692 140.986 40.0343 141 39.2996C140.984 38.5316 141.017 37.7633 141.1 36.9996C141.101 36.2561 141.202 35.5162 141.4 34.7996C141.53 34.0584 141.697 33.3241 141.9 32.5996C142.123 31.8836 142.39 31.1823 142.7 30.4996L143.6 28.4996L144.8 26.5996L146.1 24.7996L147.6 23.1996C148.093 22.6214 148.665 22.1164 149.3 21.6996C149.835 21.1551 150.441 20.6843 151.1 20.2996C151.698 19.8747 152.334 19.5064 153 19.1996C153.635 18.8067 154.305 18.472 155 18.1996L157.1 17.4996L159.3 16.8996L161.5 16.5996H165.9L168.1 16.8996L170.3 17.4996L172.4 18.1996C173.096 18.472 173.765 18.8067 174.4 19.1996C175.066 19.5064 175.702 19.8747 176.3 20.2996L178.1 21.6996C178.715 22.1419 179.285 22.6444 179.8 23.1996L181.3 24.7996L182.6 26.5996L183.7 28.4996C184.073 29.1456 184.407 29.8135 184.7 30.4996L185.5 32.5996C185.7 33.3996 185.8 34.0996 186 34.7996L186.3 36.9996C186.383 37.7633 186.417 38.5316 186.4 39.2996Z" fill="white"/>
<path d="M2.5 83C2.5 83 17.9 119.3 65.1 119.3C118.1 119.3 120.7 103.4 156.4 103.4C190.2 103.4 211.2 107.5 211.2 107.5C211.2 107.5 187.1 86.3 156.4 86.3C125.7 86.3 99 101.8 65.1 101.8C24.5 101.8 2.5 83 2.5 83Z" fill="white"/>
<path d="M132.8 71.0003C108.8 71.0003 58.4 95.9003 47.8 81.4003C53.2 78.7003 97.3 51.6003 97.3 51.6003L89.1 33.5003C89.1 33.5003 87.4 26.1003 81.2 28.1003C75 30.1003 44.9 41.8003 39.9 43.7003C27.3 48.5003 22.2 39.0003 34.4 31.9003C50.1 22.7003 79.7 8.00028 84.2 5.60028C88.7 3.20028 95.3 2.00028 100.1 10.2003C107.1 22.2003 133.5 63.3003 133.5 63.3003C133.5 63.3003 137.9 71.0003 132.8 71.0003Z" fill="white"/>
</svg>
