<svg width="226" height="138" viewBox="0 0 226 138" fill="none" xmlns="http://www.w3.org/2000/svg">
<g clip-path="url(#clip0_29_31515)">
<path d="M14.0004 24.8992C15.6004 22.4992 15.8004 18.2992 19.2004 17.6992C18.1004 24.6992 17.2004 31.7992 17.1004 38.8992C17.4004 50.2992 22.5004 61.7992 31.6004 68.7992C41.5004 75.9992 54.7004 73.0992 65.3004 78.5992C68.1004 80.1992 70.7004 82.3992 72.3004 85.2992C73.5004 88.5992 71.9004 92.1992 69.1004 93.9992C64.9004 97.7992 59.0004 97.3992 53.7004 96.9992C38.3004 95.9992 23.7004 87.7992 14.8004 75.3992C8.3004 66.0992 7.7004 53.9992 9.2004 43.0992C10.3004 36.8992 10.5004 30.3992 14.0004 24.8992Z" fill="white"/>
<path d="M97.0003 45.9008C103.6 45.3008 110.6 48.0008 114.8 53.2008C117.7 56.5008 119 60.8008 119.5 65.1008C119.3 71.6008 116 78.0008 110.5 81.7008C105.3 85.1008 98.4003 86.1008 92.5003 83.9008C83.4003 81.1008 77.3003 70.9008 79.4003 61.6008C81.1003 53.2008 88.5003 46.7008 97.0003 45.9008Z" fill="white"/>
<path d="M124.1 85.5005C127.5 85.0005 131 84.9005 134.5 85.1005C165 90.5005 195.5 95.4005 226 100.6C224.4 102.5 221.7 101.8 219.5 102.3C207.3 103 195.2 104.5 183 104.8C168.8 103.7 154.5 106.6 140.3 104.6C133.9 103.7 127.1 103.4 121.5 100C118.4 95.6005 119.5 88.4005 124.1 85.5005Z" fill="white"/>
<path d="M75.4997 130.501C92.1997 129.201 106 117.001 122.9 117.001C141.2 116.801 155.9 130.701 174 131.701C184.7 131.501 193.6 124.901 202.8 120.101C206.6 118.201 210.8 116.201 215.1 116.501C217.7 116.601 218.6 120.801 216 121.601C212.1 122.301 208.2 123.401 204.7 125.401C194.6 130.801 184.3 138.101 172.2 137.101C155 136.301 141.1 123.101 123.8 122.501C111.1 122.601 100.1 129.501 88.4997 133.601C82.2997 135.801 75.6997 136.401 69.1997 135.901C57.6997 134.801 48.1997 126.701 36.5997 125.901C27.0997 125.301 17.8997 128.401 8.99974 131.401C6.39974 132.301 3.69974 133.601 0.99974 132.701C-0.20026 131.801 0.0997396 130.101 0.0997396 128.801C4.09974 126.601 8.49974 125.501 12.7997 124.101C20.7997 121.601 29.0997 119.601 37.4997 120.201C43.0997 120.901 48.5997 122.401 53.6997 124.801C60.2997 128.301 67.6997 131.401 75.4997 130.501Z" fill="white"/>
<path d="M34.8002 0C43.1002 0 49.9002 6.7 49.9002 15C49.9002 23.3 43.2002 30 34.8002 30C26.5002 30 19.7002 23.3 19.7002 15C19.7002 6.7 26.5002 0 34.8002 0ZM34.8002 5.3C29.4002 5.3 25.0002 9.6 25.0002 15C25.0002 20.4 29.4002 24.7 34.8002 24.7C40.2002 24.7 44.6002 20.3 44.6002 15C44.6002 9.7 40.2002 5.3 34.8002 5.3Z" fill="white"/>
</g>
<defs>
<clipPath id="clip0_29_31515">
<rect width="226" height="137.3" fill="white"/>
</clipPath>
</defs>
</svg>
