<svg width="229" height="188" viewBox="0 0 229 188" fill="none" xmlns="http://www.w3.org/2000/svg">
<g clip-path="url(#clip0_29_31518)">
<path d="M47.9004 0C49.3004 0.7 50.6004 1.5 51.8004 2.5C67.5004 16.6 82.9004 31.1 98.6004 45.3C104 50.1 109.2 55.1 114.4 60.1C116.3 62.2 118.4 64.2 119.9 66.6C122.1 70.2 120.3 75.4 116.4 77.1C111.1 79 105.3 76.7 101.7 72.7C92.3004 62.3 84.0004 51 75.7004 39.8C67.4004 29.1 59.5004 18.2 51.8004 7.1C50.4004 4.8 48.5004 2.7 47.9004 0Z" fill="white"/>
<path d="M48.9004 61.3992C50.2004 57.4992 53.9004 55.2992 57.4004 53.6992C71.2004 57.8992 80.6004 69.3992 89.2004 80.1992C93.2004 85.4992 97.8004 91.3992 97.1004 98.4992C96.2004 101.699 94.1004 104.599 92.1004 107.199C82.4004 118.599 69.3004 126.499 56.2004 133.399C50.5004 136.299 45.0004 139.599 39.1004 142.199L37.9004 142.099C41.5004 137.499 46.1004 133.899 49.9004 129.599C59.5004 118.599 68.9004 107.399 79.2004 96.9992C74.5004 93.3992 69.1004 90.8992 64.6004 87.0992C59.3004 82.6992 54.3004 77.7992 50.9004 71.7992C49.2004 68.6992 48.1004 64.8992 48.9004 61.3992Z" fill="white"/>
<path d="M141.3 60.2997C147.1 59.7997 153.3 62.0997 157 66.7997C159.6 69.6997 160.7 73.5997 161.1 77.3997C160.9 81.7997 159.3 86.1997 156.2 89.3997C151.4 94.5997 143.2 96.3997 136.7 93.7997C127.7 90.6997 122.4 79.2997 126.9 70.6997C129.4 64.8997 135.1 61.0997 141.3 60.2997Z" fill="white"/>
<path d="M0 145.3C19.1 145.3 38.2 145.3 57.4 145.3C59.5 145.1 60.6 147.2 60.4 149C60.4 159 60.4 169 60.4 179C69.2 175.6 78.6 171.9 88.2 173.3C97.7 174.5 105.1 182.3 114.9 182.2C128.4 182 138.7 171 152.1 170.2C160.8 169.4 168.8 173.5 176.4 177.2C182.9 180.4 190 184.3 197.6 182.5C208.6 180.6 216.1 169.8 227.6 169.6C228.1 170.8 229 171.9 228.4 173.3C227.8 174.2 226.6 174.4 225.6 174.7C217.8 176.5 212.1 182.7 204.7 185.4C199.9 187.5 194.5 188.2 189.3 187.5C179 185.5 170.5 178.7 160.5 175.9C153.3 173.7 145.7 176.1 139.1 179.3C131.3 183.1 123.2 187.5 114.2 187C103.7 187.3 95.8 178.8 85.6 177.9C75.6 177.4 66.8 182.7 57.3 184.9C56.4 184.1 55.3 183.2 55.5 181.9C55.4 171.3 55.5 160.7 55.5 150.1H0V145.3Z" fill="white"/>
</g>
<defs>
<clipPath id="clip0_29_31518">
<rect width="228.6" height="187.9" fill="white"/>
</clipPath>
</defs>
</svg>
