<svg width="216" height="197" viewBox="0 0 216 197" fill="none" xmlns="http://www.w3.org/2000/svg">
<g clip-path="url(#clip0_29_31521)">
<path d="M136.3 1.69955C140.2 -0.700451 145.1 -0.100451 149.4 0.899549C154.7 2.59955 160.4 5.29955 163 10.5995C164.9 13.9995 163.6 17.9995 162.2 21.1995C165.4 23.5995 168.6 25.9995 171.8 28.4995C172.9 29.2995 174 30.1995 175.4 30.1995C188.9 30.2995 202.4 30.1995 215.9 30.1995V34.4995C203.8 34.4995 191.7 34.4995 179.6 34.4995C183.8 37.6995 188.4 40.3995 191.9 44.2995C191.4 45.0995 191.3 46.4996 190.1 46.6996C188.4 46.9996 187.2 45.5995 185.9 44.7995C183 51.8995 178.4 58.0995 173.6 63.9995C165.9 73.7996 154.4 80.7996 142 82.2996C136.3 82.1996 129.3 83.4995 125.1 78.6995C124.8 76.1995 126 73.9996 128.3 72.8996C138.6 67.6996 150.8 68.4996 161.1 63.1996C168.4 59.8996 173.8 53.7996 179.5 48.3996C181.2 46.8996 182.7 45.1996 184.1 43.3996C180.6 40.6996 177.1 37.9996 173.5 35.3996C172 34.0996 170 34.5995 168.2 34.4995C111.9 34.4995 55.5002 34.4995 -0.799805 34.4995V30.1995C55.0002 30.1995 110.9 30.1995 166.7 30.1995C164.3 28.3995 161.9 26.5995 159.5 24.8995C156.8 26.7995 153.6 28.4995 150.2 28.3995C146.3 28.6995 143 26.3995 140.1 24.0995C136.1 20.3995 133.1 15.3995 133.1 9.79955C133.1 6.79955 133.6 3.39955 136.3 1.69955Z" fill="white"/>
<path d="M111.5 36.3001C116.8 35.7001 122.3 37.7001 125.9 41.7001C128.2 44.5001 129.7 47.9001 129.9 51.5001C129.7 57.9001 125.5 64.1001 119.4 66.2001C112.1 69.1001 102.9 66.1001 99.1998 59.1001C96.4998 54.7001 96.4998 49.0001 99.0998 44.6001C101.5 39.9001 106.5 37.0001 111.5 36.3001Z" fill="white"/>
<path d="M39.1001 69.7002C49.7001 63.0002 62.4001 58.2002 75.1001 60.0002C80.2001 60.5002 85.0001 62.6002 89.2001 65.4002C91.6001 67.5002 92.1001 71.7002 89.6001 73.9002C88.3001 75.4002 86.1001 74.9002 84.3001 74.9002C75.8001 73.5002 67.0001 72.3002 58.4001 73.7002C54.0001 74.2002 49.8001 75.4002 45.6001 76.7002C37.7001 79.5002 30.6001 84.1002 23.2001 87.9002C23.1001 86.6002 24.0001 85.6002 24.6001 84.6002C28.3001 78.8002 33.1001 73.4002 39.1001 69.7002Z" fill="white"/>
<path d="M-0.799805 105.801H215.9V110.101H-0.799805V105.801Z" fill="white"/>
<path d="M76.9 117.599C78.5 113.799 83.2 113.199 86.7 114.499C87.7 115.699 88.7 116.999 89.5 118.399C90.3 119.899 92.1 120.799 92.4 122.699C95.7 133.399 99.7 144.099 99.8 155.399C99.8 159.899 98.7 165.099 94.7 167.899C89.9 171.599 85 175.199 79.7 178.099C66.8 184.199 54.4 191.399 41 196.399C41.6 194.099 44.1 193.199 45.7 191.599C54.7 184.599 62.5 176.199 70.7 168.399C75.1 163.899 80.6 160.799 85.7 157.299C82.9 150.199 79.9 143.099 77.6 135.799C76.2 129.899 74.6 123.499 76.9 117.599Z" fill="white"/>
<path d="M100 116.099C102.7 114.099 106.5 114.499 109.5 115.699C118.4 118.699 124.7 126.099 130.4 133.199C143.1 150.099 155.7 167.099 168.4 183.999C171.7 188.299 175.9 191.899 179.2 196.199C176 196.599 173.5 193.799 170.9 192.299C161.4 185.499 151.6 178.899 142.8 171.099C132.1 162.099 122.2 152.299 112.4 142.499C106.8 136.899 101.4 130.699 99.0999 122.899C98.5999 120.699 98.3 117.899 100 116.099Z" fill="white"/>
</g>
<defs>
<clipPath id="clip0_29_31521">
<rect width="215.8" height="196.3" fill="white"/>
</clipPath>
</defs>
</svg>
