<svg width="212" height="152" viewBox="0 0 212 152" fill="none" xmlns="http://www.w3.org/2000/svg">
<g clip-path="url(#clip0_29_31499)">
<path d="M118.2 0.499883C122.445 0.0180697 126.71 1.20101 130.1 3.79988C134 6.69988 136 11.4999 136.5 16.1999C137 20.8999 133.5 27.3999 128.6 30.1999C126.484 31.5221 124.082 32.3206 121.595 32.5293C119.109 32.738 116.608 32.3508 114.3 31.3999C106.7 28.5999 102.2 19.4999 104.8 11.7999C105.726 8.83558 107.478 6.19723 109.852 4.19535C112.226 2.19346 115.122 0.911343 118.2 0.499883Z" fill="white"/>
<path d="M2.00001 20.9996C3.24744 19.2348 4.87358 17.7712 6.7595 16.7158C8.64542 15.6604 10.7434 15.0398 12.9 14.8996C23.5 13.9996 34.1 22.1996 35.6 32.6996C36 34.9996 35 37.1996 34.7 39.4996C39.193 42.5192 43.8686 45.2577 48.7 47.6996C63.8337 51.6736 79.8395 50.728 94.4 44.9996C99.3 42.8996 104 39.3996 109.6 39.4996C115.2 39.5996 116 46.8996 112.9 50.1996C109.8 53.4996 103.8 55.0996 98.9 56.0996C94 57.0996 91.5 57.4996 87.7 57.8996C79.3 58.0996 70.8 58.2996 62.6 56.4996C62.6 57.1996 62.5 58.3996 62.5 59.0996C60.2 60.3996 57.9 59.0996 56 57.7996C50.7 54.4996 45.4 51.2996 39.9 48.3996C37.2 46.8996 34.8 44.6996 31.9 43.2996C29.1488 45.6775 25.6364 46.9902 22 46.9996C13.5 47.1996 5.30001 41.7996 1.70001 34.0996C0.809994 32.0217 0.376216 29.777 0.42797 27.5171C0.479724 25.2572 1.0158 23.0346 2.00001 20.9996Z" fill="white"/>
<path d="M152.9 36.7C157.196 35.0463 161.855 34.5632 166.4 35.3C174.2 36.8 182 39.3 188.5 44C192.2 46.9 195.9 50.5 196.8 55.3C197.866 60.713 197.465 66.3129 195.636 71.5181C193.807 76.7233 190.618 81.3439 186.4 84.9C184.4 86.4 182.8 89.3 179.9 89.1C184.995 82.2958 187.702 73.9999 187.6 65.5C187.619 63.5485 187.154 61.6226 186.247 59.8949C185.339 58.1671 184.017 56.6914 182.4 55.6C174.4 50.1 164.1 50.8 155.3 47.5C153.972 47.0184 152.776 46.2345 151.804 45.2105C150.832 44.1865 150.111 42.9504 149.7 41.6C149 39.3 151 37.4 152.9 36.7Z" fill="white"/>
<path d="M147.3 81.1005C150 75.8005 158.3 76.3005 161.4 80.9005C164.5 85.5005 164.4 89.0005 164.8 93.2005C165.5 103.2 164.9 113.6 168.6 123.2C171.7 130.6 178.9 135.1 185.9 138.5C192.9 141.9 202.7 144.5 211.1 147.6C209.3 149.8 206.1 148.7 203.8 148.4L178.2 142.7C170.7 140.8 162.8 137.7 158.3 131C152.164 119.697 148.036 107.415 146.1 94.7005C145.7 90.2005 145.1 85.3005 147.3 81.1005Z" fill="white"/>
<path d="M130.4 79.5006C133.7 78.4006 137.6 77.8006 140.8 79.7006C144 81.6006 143.6 83.2006 144.4 85.2006C145.6 88.9006 143.3 92.7006 140.5 95.0006C136.312 97.9497 131.936 100.622 127.4 103.001C102.2 117.301 76.6 130.901 51.3 144.901C46.9355 147.361 42.3485 149.403 37.6 151.001L36.5 150.201C38.1003 149.42 39.6382 148.517 41.1 147.501C62.9667 130.034 84.9333 112.601 107 95.2006C114.4 89.4006 121.6 83.1006 130.4 79.5006Z" fill="white"/>
<path d="M19.2 53.5C20.5251 53.5 21.8205 53.8929 22.9223 54.6292C24.0241 55.3654 24.8829 56.4118 25.39 57.636C25.8971 58.8603 26.0298 60.2074 25.7713 61.5071C25.5127 62.8068 24.8746 64.0006 23.9376 64.9376C23.0006 65.8746 21.8068 66.5127 20.5071 66.7713C19.2074 67.0298 17.8603 66.8971 16.636 66.39C15.4118 65.8829 14.3654 65.0241 13.6292 63.9223C12.8929 62.8205 12.5 61.5251 12.5 60.2C12.5 58.4231 13.2059 56.7189 14.4624 55.4624C15.7189 54.2059 17.4231 53.5 19.2 53.5Z" fill="white"/>
</g>
<defs>
<clipPath id="clip0_29_31499">
<rect width="211.7" height="151.8" fill="white"/>
</clipPath>
</defs>
</svg>
