<svg width="224" height="195" viewBox="0 0 224 195" fill="none" xmlns="http://www.w3.org/2000/svg">
<g clip-path="url(#clip0_29_31524)">
<path d="M68.8999 0.0990285C74.3999 -0.500972 80.0999 1.59903 83.6999 5.69903C85.9999 8.59903 87.4999 12.099 87.7999 15.799C87.6999 22.499 83.1999 28.999 76.6999 30.999C68.8999 33.899 59.0999 30.199 55.6999 22.399C51.7999 15.099 55.6999 5.49903 62.8999 1.89903C64.7999 1.09903 66.7999 0.499028 68.8999 0.0990285Z" fill="white"/>
<path d="M131.7 14.6992C135.4 14.0992 139.1 12.7992 142.9 12.6992C141.2 14.0992 138.9 14.1992 137 15.1992C130.4 18.2992 123.8 21.2992 117.2 24.2992C106.4 29.0992 95.5 34.0992 86.5 41.9992C132 41.9992 177.5 41.9992 223.1 41.9992V46.4992C181.9 46.4992 140.7 46.4992 99.6 46.4992C104.6 49.8992 109.3 53.8992 115.1 55.9992C125.3 61.3992 136.8 63.2992 148 65.4992C152.1 66.0992 156.3 66.4992 160.3 67.5992L161.4 68.3992C146.6 69.7992 131.3 71.6992 116.6 68.2992C109.4 66.6992 102.4 64.0992 95.6 61.3992C91.2 59.3992 87.2 55.8992 85.4 51.2992C84.8 49.6992 85.3 47.9992 85.9 46.4992C77.5 45.0992 71.7 54.1992 63.3 52.7992C60.6 51.9992 58.9 49.2992 58.8 46.5992C39.2 46.5992 19.6 46.5992 0 46.5992V41.9992C20.1 41.9992 40.2 42.0992 60.2 41.9992C61.4 40.7992 62.5 39.6992 63.9 38.7992C69.6 35.3992 75.6 32.5992 81.8 30.1992C98.3 24.3992 114.6 17.8992 131.7 14.6992Z" fill="white"/>
<path d="M58.5 95.5004C59.4 93.4004 61.7 92.3004 63.9 91.9004C68.8 92.8004 72.3 96.7004 74.8 100.7C75.8 102.1 76.4 104.1 78.3 104.7C78.1 102.2 77.5 99.6004 78.7 97.3004C79.5 95.6004 81.3 94.9004 82.8 93.9004C85.1 94.3004 87.5 94.5004 89.5 95.9004C92.9 98.1004 95.5 101.4 98.2 104.3C139.9 104.5 181.5 104.3 223.2 104.4V108.9C182.4 108.9 141.6 108.9 100.8 108.9C105 118.1 109.1 127.4 113.2 136.7C116.7 147.2 120.1 157.7 123.5 168.2C125.7 176.6 127.4 185.2 129.1 193.7L128 193.8C127.2 189.9 125.4 186.2 123.9 182.5C121.4 176.5 119.2 170.4 116.2 164.6C111.7 155.6 108.1 146.1 101.7 138.2C95.7 130 88.1 122.9 82.8 114.1C81.6 112.2 80.8 109.8 79 108.3C81.7 120.7 86.6 132.7 88.1 145.4C89.3 152.9 90.5 160.4 91.6 167.9C92.6 174.3 92.6 180.7 93 187.2C93.1 189.7 93.4 192.3 92.9 194.9C89.8 180.3 86 165.9 81.5 151.7C77.4 135.9 65.6 123.8 59.7 108.8C39.8 108.8 19.9 108.8 0 108.8V104.4C19.4 104.4 38.9 104.4 58.3 104.4C57.9 101.4 57.4 98.3004 58.5 95.5004Z" fill="white"/>
<path d="M153 10.5996C161.4 10.5996 168.2 17.3996 168.2 25.7996C168.2 34.1996 161.4 40.9996 153 40.9996C144.6 40.9996 137.8 34.1996 137.8 25.7996C137.8 17.3996 144.6 10.5996 153 10.5996ZM153 14.9996C147.1 14.9996 142.2 19.7996 142.2 25.6996C142.2 31.5996 147 36.3996 153 36.3996C159 36.3996 163.8 31.5996 163.8 25.6996C163.8 19.7996 159 14.9996 153 14.9996Z" fill="white"/>
</g>
<defs>
<clipPath id="clip0_29_31524">
<rect width="223.1" height="194.9" fill="white"/>
</clipPath>
</defs>
</svg>
